<svg xmlns="http://www.w3.org/2000/svg" xmlns:xlink="http://www.w3.org/1999/xlink" viewBox="0 0 1105 200"><defs><style>.cls-1{fill:#20385b;}.cls-2{fill:url(#linear-gradient);}.cls-3{fill:#0082ff;}.cls-4{fill:#0052cc;}</style><linearGradient id="linear-gradient" x1="71.95" y1="118.84" x2="80.9" y2="145.36" gradientTransform="translate(-3.22 -3.19) rotate(0.35)" gradientUnits="userSpaceOnUse"><stop offset="0" stop-color="#0050d3"/><stop offset="1" stop-color="#0082ff"/></linearGradient></defs><g id="Logo_Lock-up" data-name="Logo Lock-up"><path class="cls-1" d="M135.62,92.18h7.92V132.4c0,10.65-4.67,17.95-15.58,17.95a28.21,28.21,0,0,1-9.5-1.49V141.2a22.14,22.14,0,0,0,8.18,1.5c6.69,0,9-4,9-9.77Z"/><path class="cls-1" d="M158,89.11a5.28,5.28,0,1,1-5.28,5.27A4.94,4.94,0,0,1,158,89.11ZM154.1,106h7.57v44H154.1Z"/><path class="cls-1" d="M180.5,150h-7.4V106h7.4v7.74c2.55-5.19,6.95-8.88,15.57-8.36v7.4c-9.68-1-15.57,1.93-15.57,11.26Z"/><path class="cls-1" d="M231.54,142.08c-2.82,5.81-8.1,8.8-14.88,8.8-11.7,0-17.6-9.94-17.6-22.88,0-12.41,6.16-22.88,18.48-22.88,6.43,0,11.36,2.9,14,8.62V106h7.56v44h-7.56Zm-12.85,1.76c6.77,0,12.85-4.31,12.85-14.08v-3.52c0-9.77-5.55-14.08-12-14.08-8.54,0-12.94,5.63-12.94,15.84C206.63,138.56,210.86,143.84,218.69,143.84Z"/><path class="cls-1" d="M283.9,150.88c-11.18,0-16.37-2.2-20.86-4.49V138.3c5.37,2.81,13.64,4.84,21.3,4.84,8.71,0,12-3.44,12-8.54s-3.16-7.83-14.16-10.47c-13-3.17-18.84-7.66-18.84-17.16,0-9,6.87-15.67,20.33-15.67,8.36,0,13.73,2,17.69,4.23v7.92a35.48,35.48,0,0,0-18-4.4c-7.57,0-12.06,2.64-12.06,7.92,0,4.75,3.7,7.13,13.91,9.68,12.23,3.08,19.09,7,19.09,17.42C304.22,144.1,298.24,150.88,283.9,150.88Z"/><path class="cls-1" d="M334.58,150.88c-16.45,0-23.67-9.5-23.67-23,0-13.29,7.39-22.79,20.77-22.79,13.55,0,19,9.42,19,22.79v3.43H318.57c1.05,7.48,5.89,12.32,16.28,12.32a38.93,38.93,0,0,0,13.37-2.37v7C344.61,150.17,339.07,150.88,334.58,150.88Zm-16.1-26H343c-.44-8.18-4.14-12.85-11.7-12.85C323.32,112,319.27,117.18,318.48,124.83Z"/><path class="cls-1" d="M367.05,150h-7.39V106h7.39v7.74c2.55-5.19,6.95-8.88,15.58-8.36v7.4c-9.68-1-15.58,1.93-15.58,11.26Z"/><path class="cls-1" d="M401.28,150l-17.07-44h7.92l14.26,37.58L420.56,106h7.92L411.4,150Z"/><path class="cls-1" d="M438.86,89.11a5.28,5.28,0,1,1-5.28,5.27A4.94,4.94,0,0,1,438.86,89.11ZM435,106h7.57v44H435Z"/><path class="cls-1" d="M485.06,148.86c-2.64,1.4-6.69,2-10.74,2-15.66,0-23-9.5-23-23,0-13.29,7.3-22.79,23-22.79a23.3,23.3,0,0,1,10.47,2.11v7a22.13,22.13,0,0,0-9.94-2.11c-11.44,0-16.1,7.22-16.1,15.75s4.75,15.75,16.28,15.75a27.79,27.79,0,0,0,10-1.58Z"/><path class="cls-1" d="M514.71,150.88c-16.45,0-23.67-9.5-23.67-23,0-13.29,7.39-22.79,20.77-22.79,13.55,0,19,9.42,19,22.79v3.43H498.7c1.05,7.48,5.89,12.32,16.28,12.32a38.93,38.93,0,0,0,13.37-2.37v7C524.75,150.17,519.2,150.88,514.71,150.88Zm-16.1-26h24.55c-.44-8.18-4.13-12.85-11.7-12.85C503.45,112,499.4,117.18,498.61,124.83Z"/><path class="cls-1" d="M565.23,96.94V150h-7.92V92.18H571l13.11,33.18,5.37,15.93,5.37-15.93,13.2-33.18h12.76V150h-7.92V97.55l-6.78,20.86L593.38,150h-7.65l-12.58-31.59Z"/><path class="cls-1" d="M663.35,142.08c-2.82,5.81-8.1,8.8-14.88,8.8-11.7,0-17.59-9.94-17.59-22.88,0-12.41,6.15-22.88,18.47-22.88,6.43,0,11.36,2.9,14,8.62V106h7.56v44h-7.56Zm-12.85,1.76c6.77,0,12.85-4.31,12.85-14.08v-3.52c0-9.77-5.55-14.08-12-14.08-8.54,0-12.94,5.63-12.94,15.84C638.44,138.56,642.67,143.84,650.5,143.84Z"/><path class="cls-1" d="M719.75,150h-7.57V123.42c0-7.92-3.16-11.44-10.38-11.44-7,0-11.88,4.67-11.88,13.56V150h-7.57V106h7.57v7.22a15.42,15.42,0,0,1,13.91-8.1c10.11,0,15.92,6.95,15.92,19.1Z"/><path class="cls-1" d="M760.14,142.08c-2.81,5.81-8.09,8.8-14.87,8.8-11.7,0-17.6-9.94-17.6-22.88,0-12.41,6.16-22.88,18.48-22.88,6.43,0,11.35,2.9,14,8.62V106h7.57v44h-7.57Zm-12.84,1.76c6.77,0,12.84-4.31,12.84-14.08v-3.52c0-9.77-5.54-14.08-12-14.08-8.54,0-12.94,5.63-12.94,15.84C735.24,138.56,739.46,143.84,747.3,143.84Z"/><path class="cls-1" d="M808.81,142.08c-2.82,5.81-8.1,8.8-14.87,8.8-11.62,0-17.43-9.94-17.43-22.88,0-12.41,6.07-22.88,18.31-22.88,6.42,0,11.35,2.9,14,8.62V106h7.39v40c0,12.93-6.07,21.65-21.82,21.65a44.29,44.29,0,0,1-15.67-2.38v-7.39A48.75,48.75,0,0,0,794,160.56c11,0,14.79-5.9,14.79-14.08ZM796,143.84c6.78,0,12.85-4.31,12.85-14.08v-3.52c0-9.77-5.55-14.08-12-14.08-8.54,0-12.94,5.63-12.94,15.84C783.9,138.56,788.13,143.84,796,143.84Z"/><path class="cls-1" d="M848.67,150.88c-16.45,0-23.67-9.5-23.67-23,0-13.29,7.39-22.79,20.77-22.79,13.55,0,19,9.42,19,22.79v3.43H832.66c1.05,7.48,5.89,12.32,16.28,12.32a38.93,38.93,0,0,0,13.37-2.37v7C858.7,150.17,853.16,150.88,848.67,150.88Zm-16.1-26h24.55c-.44-8.18-4.14-12.85-11.7-12.85C837.41,112,833.36,117.18,832.57,124.83Z"/><path class="cls-1" d="M911.15,150h-7.57V123.42c0-7.92-3.17-11.44-10.38-11.44-7,0-11.88,4.67-11.88,13.56V150h-7.57V106h7.57v7.22a15.41,15.41,0,0,1,13.9-8.1c7.48,0,12.58,3.78,14.78,10.74,2.47-6.78,8.37-10.74,15.67-10.74,9.85,0,15.31,6.69,15.31,19.1V150h-7.57V125.54c0-9.07-3.17-13.56-10.38-13.56-7,0-11.88,4.67-11.88,13.56Z"/><path class="cls-1" d="M972.57,150.88c-16.45,0-23.67-9.5-23.67-23,0-13.29,7.39-22.79,20.77-22.79,13.55,0,19,9.42,19,22.79v3.43H956.56c1.05,7.48,5.89,12.32,16.28,12.32a38.93,38.93,0,0,0,13.37-2.37v7C982.6,150.17,977.06,150.88,972.57,150.88Zm-16.1-26H981c-.44-8.18-4.14-12.85-11.7-12.85C961.31,112,957.26,117.18,956.47,124.83Z"/><path class="cls-1" d="M1035.05,150h-7.57V123.42c0-7.92-3.16-11.44-10.38-11.44-7,0-11.88,4.67-11.88,13.56V150h-7.57V106h7.57v7.22a15.42,15.42,0,0,1,13.9-8.1c10.12,0,15.93,6.95,15.93,19.1Z"/><path class="cls-1" d="M1063,142.87a24.31,24.31,0,0,0,4.75-.61v7.3a18.3,18.3,0,0,1-5.11.7c-9.41,0-14-5.54-14-13.72V113h-7.13v-7h7.13V96.67h7.39V106h11.71v7h-11.71v23.32C1056.08,140.23,1058.37,142.87,1063,142.87Z"/><path class="cls-2" d="M68.83,113l20.9.12a3.26,3.26,0,0,1,2.59,5.22L61.47,159.5A21.91,21.91,0,0,1,57,128.82Z"/><path class="cls-3" d="M57,128.82l-20.78-.13a3.26,3.26,0,0,1-2.6-5.21L64.19,82.65a21.93,21.93,0,0,1,4.44,30.69Z"/></g><g id="Attribution"><path class="cls-4" d="M224.86,63.74c0-4-2.55-5.75-7.38-7-3-.76-3.73-1.41-3.73-2.42,0-1.2,1.06-1.81,3.05-1.81a16.51,16.51,0,0,1,7,1.85v-5A15.8,15.8,0,0,0,217,47.87c-5.26,0-8.18,2.53-8.18,6.6,0,3.9,2.58,5.89,7,6.87,3.05.68,4,1.19,4,2.5,0,1-.73,1.82-3,1.82a16.46,16.46,0,0,1-8.06-2.3v5.28a17.49,17.49,0,0,0,8,1.86C222.23,70.5,224.86,67.81,224.86,63.74Z"/><path class="cls-4" d="M285.28,48.19v22H290V53.43l2,4.44,6.6,12.31h5.88v-22h-4.67v14.2L298,58.28l-5.32-10.09Z"/><path class="cls-4" d="M255.61,48.19h-5.12v22h5.12Z"/><path class="cls-4" d="M169.16,48.19v22h10.46l1.65-4.76h-7V48.19Z"/><path class="cls-4" d="M148.43,48.19V53h5.67V70.18h5.11V53h6.08V48.19Z"/><path class="cls-4" d="M141,48.19h-6.74l-7.66,22h5.85l1.09-3.72a14.84,14.84,0,0,0,4.11.61,13.87,13.87,0,0,0,4.11-.61l1.09,3.72h5.85Zm-3.39,14.35a10.85,10.85,0,0,1-2.82-.4l2.82-9.63,2.82,9.63A10.61,10.61,0,0,1,137.59,62.54Z"/><path class="cls-4" d="M197.74,48.19H191l-7.67,22h5.85l1.09-3.72a14.86,14.86,0,0,0,4.12.61,13.87,13.87,0,0,0,4.11-.61l1.09,3.72h5.85Zm-3.39,14.35a11,11,0,0,1-2.82-.4l2.82-9.63,2.83,9.63A11,11,0,0,1,194.35,62.54Z"/><path class="cls-4" d="M274,48.19h-6.74l-7.66,22h5.85l1.08-3.72a15,15,0,0,0,4.12.61,13.87,13.87,0,0,0,4.11-.61l1.09,3.72h5.85Zm-3.35,14.35a10.85,10.85,0,0,1-2.82-.4l2.82-9.63,2.82,9.63A11.16,11.16,0,0,1,270.62,62.54Z"/><path class="cls-4" d="M245.23,63.74c0-4-2.55-5.75-7.38-7-3-.76-3.73-1.41-3.73-2.42,0-1.2,1.06-1.81,3-1.81a16.51,16.51,0,0,1,7,1.85v-5a15.8,15.8,0,0,0-6.88-1.49c-5.26,0-8.18,2.53-8.18,6.6,0,3.9,2.58,5.89,7,6.87,3.05.68,4,1.19,4,2.5,0,1-.74,1.82-3,1.82a16.46,16.46,0,0,1-8.06-2.3v5.28a17.49,17.49,0,0,0,8,1.86C242.6,70.5,245.23,67.81,245.23,63.74Z"/></g></svg>