<svg width="491" height="417" viewBox="0 0 491 417" fill="none" xmlns="http://www.w3.org/2000/svg">
<rect width="491" height="417" fill="#D9D9D9"/>
<path d="M149 367H336V397H149V367Z" fill="white"/>
<path d="M187.24 388H185.486L190.56 374.182H192.287L197.361 388H195.607L191.477 376.368H191.369L187.24 388ZM187.888 382.602H194.959V384.087H187.888V382.602ZM203.155 377.636V378.986H197.784V377.636H203.155ZM199.35 375.153H200.942V385.031C200.942 385.481 201.007 385.818 201.138 386.043C201.272 386.264 201.443 386.412 201.65 386.489C201.862 386.561 202.084 386.597 202.318 386.597C202.494 386.597 202.638 386.588 202.75 386.57C202.863 386.547 202.953 386.529 203.02 386.516L203.344 387.946C203.236 387.987 203.085 388.027 202.892 388.067C202.698 388.112 202.453 388.135 202.156 388.135C201.707 388.135 201.266 388.038 200.834 387.845C200.407 387.651 200.051 387.357 199.768 386.961C199.489 386.565 199.35 386.066 199.35 385.463V375.153ZM210.057 377.636V378.986H204.687V377.636H210.057ZM206.252 375.153H207.844V385.031C207.844 385.481 207.909 385.818 208.04 386.043C208.175 386.264 208.346 386.412 208.553 386.489C208.764 386.561 208.987 386.597 209.221 386.597C209.396 386.597 209.54 386.588 209.652 386.57C209.765 386.547 209.855 386.529 209.922 386.516L210.246 387.946C210.138 387.987 209.988 388.027 209.794 388.067C209.601 388.112 209.356 388.135 209.059 388.135C208.609 388.135 208.168 388.038 207.736 387.845C207.309 387.651 206.954 387.357 206.67 386.961C206.391 386.565 206.252 386.066 206.252 385.463V375.153ZM215.502 388.243C214.845 388.243 214.249 388.119 213.714 387.872C213.179 387.62 212.754 387.258 212.439 386.786C212.124 386.309 211.967 385.733 211.967 385.058C211.967 384.464 212.084 383.983 212.318 383.614C212.551 383.241 212.864 382.949 213.255 382.737C213.647 382.526 214.079 382.368 214.551 382.265C215.028 382.157 215.507 382.071 215.988 382.009C216.618 381.928 217.128 381.867 217.52 381.826C217.915 381.781 218.203 381.707 218.383 381.604C218.568 381.5 218.66 381.32 218.66 381.064V381.01C218.66 380.344 218.478 379.827 218.113 379.458C217.754 379.089 217.207 378.905 216.474 378.905C215.714 378.905 215.118 379.071 214.686 379.404C214.254 379.737 213.95 380.092 213.775 380.47L212.264 379.93C212.533 379.301 212.893 378.81 213.343 378.46C213.797 378.104 214.292 377.857 214.828 377.717C215.367 377.573 215.898 377.501 216.42 377.501C216.753 377.501 217.135 377.542 217.567 377.623C218.003 377.699 218.424 377.859 218.829 378.102C219.238 378.345 219.578 378.711 219.847 379.202C220.117 379.692 220.252 380.349 220.252 381.172V388H218.66V386.597H218.579C218.471 386.821 218.291 387.062 218.039 387.319C217.787 387.575 217.452 387.793 217.034 387.973C216.616 388.153 216.105 388.243 215.502 388.243ZM215.745 386.812C216.375 386.812 216.906 386.689 217.337 386.441C217.774 386.194 218.102 385.875 218.323 385.483C218.547 385.092 218.66 384.68 218.66 384.249V382.791C218.592 382.872 218.444 382.946 218.215 383.014C217.99 383.077 217.729 383.133 217.432 383.183C217.14 383.228 216.854 383.268 216.575 383.304C216.301 383.335 216.078 383.362 215.907 383.385C215.493 383.439 215.106 383.527 214.747 383.648C214.391 383.765 214.103 383.943 213.883 384.181C213.667 384.415 213.559 384.734 213.559 385.139C213.559 385.692 213.764 386.111 214.173 386.394C214.587 386.673 215.111 386.812 215.745 386.812ZM227.369 388.216C226.397 388.216 225.561 387.987 224.859 387.528C224.157 387.069 223.617 386.437 223.24 385.632C222.862 384.827 222.673 383.907 222.673 382.872C222.673 381.82 222.866 380.891 223.253 380.086C223.644 379.276 224.189 378.644 224.886 378.19C225.588 377.731 226.406 377.501 227.342 377.501C228.07 377.501 228.727 377.636 229.312 377.906C229.897 378.176 230.376 378.554 230.749 379.04C231.122 379.526 231.354 380.092 231.444 380.74H229.852C229.73 380.268 229.46 379.849 229.042 379.485C228.628 379.116 228.07 378.932 227.369 378.932C226.748 378.932 226.204 379.094 225.736 379.418C225.273 379.737 224.911 380.189 224.65 380.774C224.393 381.354 224.265 382.036 224.265 382.818C224.265 383.619 224.391 384.316 224.643 384.91C224.899 385.504 225.259 385.965 225.722 386.293C226.19 386.621 226.739 386.786 227.369 386.786C227.783 386.786 228.158 386.714 228.496 386.57C228.833 386.426 229.119 386.219 229.352 385.949C229.586 385.679 229.753 385.355 229.852 384.977H231.444C231.354 385.589 231.131 386.14 230.776 386.63C230.425 387.116 229.96 387.503 229.379 387.791C228.804 388.074 228.133 388.216 227.369 388.216ZM235.364 381.766V388H233.772V374.182H235.364V379.256H235.499C235.742 378.72 236.106 378.295 236.592 377.98C237.082 377.661 237.735 377.501 238.549 377.501C239.255 377.501 239.874 377.643 240.404 377.926C240.935 378.205 241.347 378.635 241.639 379.215C241.936 379.791 242.084 380.524 242.084 381.415V388H240.492V381.523C240.492 380.7 240.278 380.063 239.851 379.613C239.428 379.159 238.841 378.932 238.09 378.932C237.568 378.932 237.1 379.042 236.687 379.262C236.277 379.483 235.953 379.804 235.715 380.227C235.481 380.65 235.364 381.163 235.364 381.766ZM244.997 388V377.636H246.536V379.256H246.671C246.887 378.702 247.235 378.273 247.717 377.967C248.198 377.657 248.776 377.501 249.451 377.501C250.134 377.501 250.703 377.657 251.158 377.967C251.616 378.273 251.974 378.702 252.23 379.256H252.338C252.604 378.72 253.002 378.295 253.533 377.98C254.063 377.661 254.7 377.501 255.442 377.501C256.369 377.501 257.127 377.792 257.716 378.372C258.305 378.948 258.6 379.845 258.6 381.064V388H257.007V381.064C257.007 380.299 256.798 379.753 256.38 379.424C255.962 379.096 255.469 378.932 254.902 378.932C254.174 378.932 253.609 379.152 253.209 379.593C252.808 380.029 252.608 380.583 252.608 381.253V388H250.989V380.902C250.989 380.313 250.798 379.838 250.415 379.478C250.033 379.114 249.541 378.932 248.938 378.932C248.524 378.932 248.137 379.042 247.777 379.262C247.422 379.483 247.134 379.789 246.914 380.18C246.698 380.567 246.59 381.014 246.59 381.523V388H244.997ZM265.856 388.216C264.858 388.216 263.996 387.996 263.272 387.555C262.552 387.109 261.997 386.489 261.606 385.692C261.219 384.892 261.025 383.961 261.025 382.899C261.025 381.838 261.219 380.902 261.606 380.092C261.997 379.278 262.541 378.644 263.238 378.19C263.94 377.731 264.759 377.501 265.694 377.501C266.234 377.501 266.767 377.591 267.293 377.771C267.82 377.951 268.299 378.244 268.731 378.648C269.162 379.049 269.506 379.58 269.763 380.241C270.019 380.902 270.147 381.716 270.147 382.683V383.358H262.159V381.982H268.528C268.528 381.397 268.411 380.875 268.177 380.416C267.948 379.957 267.62 379.595 267.192 379.33C266.769 379.065 266.27 378.932 265.694 378.932C265.06 378.932 264.511 379.089 264.048 379.404C263.589 379.714 263.236 380.119 262.989 380.619C262.741 381.118 262.618 381.653 262.618 382.224V383.142C262.618 383.925 262.753 384.588 263.022 385.132C263.297 385.672 263.677 386.084 264.163 386.367C264.649 386.646 265.213 386.786 265.856 386.786C266.275 386.786 266.652 386.727 266.99 386.61C267.332 386.489 267.626 386.309 267.874 386.07C268.121 385.827 268.312 385.526 268.447 385.166L269.986 385.598C269.824 386.12 269.551 386.579 269.169 386.974C268.787 387.366 268.314 387.672 267.752 387.892C267.19 388.108 266.558 388.216 265.856 388.216ZM274.162 381.766V388H272.57V377.636H274.108V379.256H274.243C274.486 378.729 274.855 378.307 275.35 377.987C275.844 377.663 276.483 377.501 277.266 377.501C277.967 377.501 278.581 377.645 279.108 377.933C279.634 378.217 280.043 378.648 280.336 379.229C280.628 379.804 280.774 380.533 280.774 381.415V388H279.182V381.523C279.182 380.709 278.97 380.074 278.548 379.62C278.125 379.161 277.545 378.932 276.807 378.932C276.299 378.932 275.844 379.042 275.444 379.262C275.048 379.483 274.736 379.804 274.506 380.227C274.277 380.65 274.162 381.163 274.162 381.766ZM288.191 377.636V378.986H282.82V377.636H288.191ZM284.386 375.153H285.978V385.031C285.978 385.481 286.043 385.818 286.174 386.043C286.309 386.264 286.48 386.412 286.686 386.489C286.898 386.561 287.121 386.597 287.354 386.597C287.53 386.597 287.674 386.588 287.786 386.57C287.899 386.547 287.989 386.529 288.056 386.516L288.38 387.946C288.272 387.987 288.121 388.027 287.928 388.067C287.734 388.112 287.489 388.135 287.192 388.135C286.743 388.135 286.302 388.038 285.87 387.845C285.443 387.651 285.087 387.357 284.804 386.961C284.525 386.565 284.386 386.066 284.386 385.463V375.153ZM297.742 379.957L296.311 380.362C296.221 380.124 296.089 379.892 295.913 379.667C295.742 379.438 295.508 379.249 295.211 379.1C294.915 378.952 294.535 378.878 294.071 378.878C293.437 378.878 292.908 379.024 292.486 379.316C292.067 379.604 291.858 379.971 291.858 380.416C291.858 380.812 292.002 381.125 292.29 381.354C292.578 381.583 293.028 381.775 293.639 381.928L295.178 382.305C296.104 382.53 296.795 382.874 297.249 383.338C297.703 383.797 297.931 384.388 297.931 385.112C297.931 385.706 297.76 386.237 297.418 386.705C297.08 387.172 296.608 387.541 296.001 387.811C295.394 388.081 294.687 388.216 293.882 388.216C292.825 388.216 291.95 387.987 291.258 387.528C290.565 387.069 290.126 386.399 289.942 385.517L291.453 385.139C291.597 385.697 291.869 386.115 292.27 386.394C292.675 386.673 293.203 386.812 293.855 386.812C294.597 386.812 295.187 386.655 295.623 386.34C296.064 386.021 296.284 385.638 296.284 385.193C296.284 384.833 296.158 384.532 295.906 384.289C295.655 384.042 295.268 383.857 294.746 383.736L293.019 383.331C292.07 383.106 291.372 382.757 290.927 382.285C290.486 381.808 290.266 381.212 290.266 380.497C290.266 379.912 290.43 379.395 290.758 378.945C291.091 378.496 291.543 378.142 292.115 377.886C292.69 377.63 293.343 377.501 294.071 377.501C295.097 377.501 295.902 377.726 296.487 378.176C297.076 378.626 297.494 379.22 297.742 379.957Z" fill="black"/>
<rect x="42" y="263" width="407" height="75" fill="white"/>
<rect x="42" y="149" width="187" height="30" fill="white"/>
<rect x="42" y="90" width="407" height="30" fill="white"/>
<path d="M42 208H229V238H42V208Z" fill="white"/>
<rect x="262" y="149" width="187" height="30" fill="white"/>
<rect x="262" y="208" width="187" height="30" fill="white"/>
<path d="M212.554 60V38.9091H225.2V41.1747H215.108V48.3011H224.253V50.5668H215.108V60H212.554ZM234.51 60.3295C233.082 60.3295 231.829 59.9897 230.751 59.31C229.68 58.6303 228.842 57.6795 228.238 56.4574C227.641 55.2353 227.342 53.8073 227.342 52.1733C227.342 50.5256 227.641 49.0872 228.238 47.8583C228.842 46.6294 229.68 45.6751 230.751 44.9954C231.829 44.3157 233.082 43.9759 234.51 43.9759C235.938 43.9759 237.188 44.3157 238.259 44.9954C239.336 45.6751 240.174 46.6294 240.771 47.8583C241.375 49.0872 241.678 50.5256 241.678 52.1733C241.678 53.8073 241.375 55.2353 240.771 56.4574C240.174 57.6795 239.336 58.6303 238.259 59.31C237.188 59.9897 235.938 60.3295 234.51 60.3295ZM234.51 58.1463C235.595 58.1463 236.487 57.8683 237.188 57.3121C237.888 56.756 238.406 56.0249 238.743 55.1186C239.079 54.2124 239.247 53.2306 239.247 52.1733C239.247 51.116 239.079 50.1308 238.743 49.2177C238.406 48.3046 237.888 47.5665 237.188 47.0036C236.487 46.4406 235.595 46.1591 234.51 46.1591C233.425 46.1591 232.533 46.4406 231.832 47.0036C231.132 47.5665 230.614 48.3046 230.277 49.2177C229.941 50.1308 229.773 51.116 229.773 52.1733C229.773 53.2306 229.941 54.2124 230.277 55.1186C230.614 56.0249 231.132 56.756 231.832 57.3121C232.533 57.8683 233.425 58.1463 234.51 58.1463ZM245.388 60V44.1818H247.736V46.571H247.9C248.189 45.7884 248.71 45.1533 249.466 44.6658C250.221 44.1784 251.072 43.9347 252.02 43.9347C252.198 43.9347 252.421 43.9381 252.689 43.945C252.957 43.9518 253.159 43.9621 253.297 43.9759V46.4474C253.214 46.4268 253.025 46.396 252.73 46.3548C252.442 46.3067 252.136 46.2827 251.814 46.2827C251.045 46.2827 250.358 46.444 249.754 46.7667C249.157 47.0825 248.683 47.5219 248.333 48.0849C247.99 48.641 247.818 49.276 247.818 49.9901V60H245.388ZM256.178 60V44.1818H258.526V46.6534H258.732C259.061 45.8089 259.593 45.1533 260.328 44.6864C261.062 44.2127 261.945 43.9759 262.974 43.9759C264.018 43.9759 264.886 44.2127 265.58 44.6864C266.28 45.1533 266.826 45.8089 267.217 46.6534H267.382C267.787 45.8364 268.395 45.1876 269.205 44.707C270.015 44.2196 270.987 43.9759 272.119 43.9759C273.534 43.9759 274.69 44.4187 275.59 45.3043C276.489 46.1831 276.939 47.5528 276.939 49.4134V60H274.509V49.4134C274.509 48.2462 274.189 47.412 273.551 46.9109C272.912 46.4097 272.161 46.1591 271.295 46.1591C270.183 46.1591 269.322 46.4955 268.711 47.1683C268.1 47.8343 267.794 48.6787 267.794 49.7017V60H265.322V49.1662C265.322 48.2668 265.031 47.5425 264.447 46.9933C263.864 46.4371 263.112 46.1591 262.192 46.1591C261.56 46.1591 260.97 46.3273 260.42 46.6637C259.878 47.0001 259.439 47.467 259.102 48.0643C258.773 48.6547 258.608 49.3378 258.608 50.1136V60H256.178Z" fill="black"/>
</svg>
